# xmcd
#
# Track frame offsets: 
#        150
#        13780
#        32583
#        51549
#        70894
#        91014
#        107027
#        127081
#        144906
#        165928
#        187736
#        208155
#        224822
#        243811
#        260203
#        283070
#        304388
#
# Disc length: 4361 seconds
#
# Revision: 1
# Processed by: cddbd v1.5.2PL0 Copyright (c) Steve Scherf et al.
# Submitted via: ExactAudioCopy v0.99pb3
#
DISCID=00110711
DTITLE=Various Artist - All My Loving 中文版 DISC1
DYEAR=2002
DGENRE=Blues
TTITLE0=卢巧音/好心分手
TTITLE1=张敬轩/My way
TTITLE2=陈慧琳/记事本
TTITLE3=周蕙/约定
TTITLE4=许绍洋/花香
TTITLE5=阿杜/他一定很爱你
TTITLE6=光良/第一次
TTITLE7=梁静茹/为我好
TTITLE8=刘若英/很爱很爱你
TTITLE9=范逸臣/I Believe
TTITLE10=林忆莲/至少还有你
TTITLE11=张柏芝/星语心愿
TTITLE12=莫文蔚/盛夏的果实
TTITLE13=杜德伟/情人
TTITLE14=任贤齐/流着泪的你的脸
TTITLE15=赵薇/情深深雨蒙蒙
TTITLE16=王馨平/别问我是谁
EXTD=
EXTT0=
EXTT1=
EXTT2=
EXTT3=
EXTT4=
EXTT5=
EXTT6=
EXTT7=
EXTT8=
EXTT9=
EXTT10=
EXTT11=
EXTT12=
EXTT13=
EXTT14=
EXTT15=
EXTT16=
PLAYORDER=
